# xmcd
#
# Track frame offsets:
#	150
#	16647
#	29255
#	45544
#	60592
#	74173
#	87970
#	106974
#	118336
#	127976
#	141462
#	158857
#	175732
#	189105
#	211372
#
# Disc length: 2867 seconds
#
# Revision: 2
# Processed by: cddbd v1.5.2PL0 Copyright (c) Steve Scherf et al.
# Submitted via: EZCDAudioConverter 2.1.7.1
#
DISCID=ce0b310f
DTITLE=Waylon Jennings - Playlist: Waylon Jennings
DYEAR=1900
DGENRE=
TTITLE0=Waylon Jennings - Lonesome, On'ry And Mean
TTITLE1=Waylon Jennings - I'm A Ramblin' Man
TTITLE2=Waylon Jennings - Honky Tonk Heroes
TTITLE3=Waylon Jennings and Willie Nelson - Luckenbach, Texas (Back To The Basic
TTITLE3=s Of Love)
TTITLE4=Waylon Jennings and Willie Nelson - Good Hearted Women
TTITLE5=Waylon Jennings - Lovin' Her Was Easier (Than Anything I'll Ever Do Ag
TTITLE5=ain)
TTITLE6=Waylon Jennings - I've Always Been Crazy
TTITLE7=Waylon Jennings - Rainy Day Woman
TTITLE8=Waylon Jennings - Theme From The Dukes Of Hazzard (Good Ol' Boys)
TTITLE9=Waylon Jennings - Amanda
TTITLE10=Waylon Jennings and Hank Williams Jr. - The Conversation
TTITLE11=Waylon Jennings - America
TTITLE12=Waylon Jennings - Don't You Think This Outlaw Bit's Done Got Out Of H
TTITLE12=and
TTITLE13=Waylon Jennings - Dreaming My Dreams With You
TTITLE14=Waylon Jennings - Data Track
EXTD=
EXTT0=
EXTT1=
EXTT2=
EXTT3=
EXTT4=
EXTT5=
EXTT6=
EXTT7=
EXTT8=
EXTT9=
EXTT10=
EXTT11=
EXTT12=
EXTT13=
EXTT14=
PLAYORDER=
